# xmcd
#
# Track frame offsets:
# 150
# 4968
# 33537
# 54893
# 81305
# 100827
# 112201
# 133715
# 156127
# 180149
# 205398
# 228325
#
# Disc length: 3358 seconds
#
# Revision: 1
# Processed by: cddbd v1.5.1PL0 Copyright (c) Steve Scherf et al.
# Submitted via: CedeCatalogueitor 2.6.0.6 http://personales.ya.com/cdcatalogueitor
#
DISCID=980d1c0c
DTITLE=U2 - Vertigo World Tour San Diego 28-03-2005 Cd 1
DYEAR=2005
DGENRE=
TTITLE0=Intro
TTITLE1=City Of Blinding Lights
TTITLE2=Vertigo (Stories For Boys)
TTITLE3=The Cry - Electric Co.
TTITLE4=An Cat Dubh
TTITLE5=Into The Heart
TTITLE6=Beautiful Day (Blackbird)
TTITLE7=New Year's Day
TTITLE8=Miracle Drug
TTITLE9=Sometimes You Can't Make It On Your Own
TTITLE10=Love And Peace Or Else
TTITLE11=Bullet The Blue Sky (The Hands That Built America)
EXTD=
EXTT0=
EXTT1=
EXTT2=
EXTT3=
EXTT4=
EXTT5=
EXTT6=
EXTT7=
EXTT8=
EXTT9=
EXTT10=
EXTT11=
PLAYORDER=
